<svg width="129" height="40" xmlns="http://www.w3.org/2000/svg"><g fill-rule="nonzero" fill="none"><path d="M117.394 0H9.651c-.368 0-.731 0-1.098.002-.307.002-.612.008-.922.013-.673.008-1.345.067-2.01.176a6.697 6.697 0 00-1.905.627 6.455 6.455 0 00-2.805 2.8 6.588 6.588 0 00-.627 1.903 12.958 12.958 0 00-.18 2.002c-.009.307-.01.615-.015.921V31.56c.005.31.006.61.016.921.008.671.068 1.34.18 2.002.11.663.32 1.306.626 1.905A6.209 6.209 0 002.093 38a6.291 6.291 0 001.623 1.179c.6.304 1.242.517 1.906.63a13.53 13.53 0 002.01.177c.31.007.614.011.92.011.368.002.731.002 1.099.002h107.743c.36 0 .727 0 1.087-.002.306 0 .62-.004.925-.01a13.352 13.352 0 002.005-.178 6.837 6.837 0 001.914-.63A6.294 6.294 0 00124.947 38a6.396 6.396 0 001.185-1.614c.302-.6.512-1.242.62-1.905.112-.661.174-1.33.187-2.002.003-.31.003-.61.003-.921.008-.364.008-.725.008-1.094V9.536c0-.366 0-.73-.008-1.092 0-.306 0-.614-.003-.92a13.47 13.47 0 00-.187-2.003 6.605 6.605 0 00-.62-1.903 6.475 6.475 0 00-2.807-2.8 6.8 6.8 0 00-1.914-.627c-.663-.11-1.333-.169-2.005-.176-.306-.005-.62-.011-.925-.013-.36-.002-.726-.002-1.087-.002z" fill="#A6A6A6"/><path d="M8.558 39.125c-.306 0-.604-.004-.907-.01a12.757 12.757 0 01-1.874-.164 5.912 5.912 0 01-1.662-.548 5.42 5.42 0 01-1.4-1.016A5.322 5.322 0 011.69 35.99a5.71 5.71 0 01-.545-1.657 12.38 12.38 0 01-.166-1.875c-.007-.21-.015-.913-.015-.913v-23.1s.009-.692.015-.895c.007-.628.063-1.253.166-1.872.095-.579.279-1.14.545-1.662a5.58 5.58 0 012.424-2.42 5.85 5.85 0 011.658-.545C6.395.95 7.023.895 7.653.887l.905-.012h109.918l.916.013c.625.007 1.248.061 1.864.162a5.967 5.967 0 011.675.548 5.602 5.602 0 012.422 2.42c.261.52.442 1.076.537 1.649.104.624.162 1.255.174 1.887.003.283.003.588.003.89.008.375.008.732.008 1.092v20.929c0 .363 0 .718-.008 1.075 0 .325 0 .623-.004.93-.012.62-.069 1.24-.171 1.853a5.728 5.728 0 01-.542 1.67c-.264.513-.608.98-1.018 1.386-.41.414-.884.759-1.404 1.022a5.89 5.89 0 01-1.672.55c-.62.101-1.247.156-1.875.163-.293.007-.601.011-.9.011l-1.087.002-108.836-.002z" fill="#000"/><g fill="#FFF"><path d="M24.93 20.3a4.946 4.946 0 012.364-4.151 5.084 5.084 0 00-4.003-2.158c-1.684-.176-3.316 1.005-4.174 1.005-.875 0-2.196-.988-3.619-.958a5.332 5.332 0 00-4.485 2.728c-1.94 3.348-.493 8.269 1.365 10.976.93 1.325 2.015 2.805 3.437 2.753 1.39-.058 1.91-.885 3.59-.885 1.663 0 2.15.885 3.6.852 1.493-.025 2.433-1.332 3.33-2.67a10.95 10.95 0 001.523-3.092 4.782 4.782 0 01-2.928-4.4zM22.191 12.21a4.863 4.863 0 001.118-3.49 4.976 4.976 0 00-3.217 1.66 4.628 4.628 0 00-1.147 3.361 4.115 4.115 0 003.246-1.53z"/><g><path d="M35.844 14.702V9.578h-1.882v-.843h4.69v.843h-1.878v5.124zM42.973 13.486a1.833 1.833 0 01-1.956 1.303 2.054 2.054 0 01-1.583-.681 2.042 2.042 0 01-.503-1.644 2.073 2.073 0 01.503-1.65c.4-.451.975-.707 1.579-.702 1.256 0 2.014.856 2.014 2.27v.31H39.84v.05a1.188 1.188 0 001.202 1.29c.436.052.86-.164 1.075-.546h.857zm-3.134-1.451h2.28a1.085 1.085 0 00-1.11-1.167 1.157 1.157 0 00-1.17 1.167zm.638-2.59l1.041-1.422h1.045l-1.165 1.423h-.92zM44.265 8.44h.891v6.262h-.89zM50.438 13.486a1.833 1.833 0 01-1.957 1.303 2.054 2.054 0 01-1.582-.681 2.042 2.042 0 01-.504-1.644 2.073 2.073 0 01.503-1.65c.4-.451.975-.707 1.58-.702 1.256 0 2.013.856 2.013 2.27v.31h-3.188v.05a1.188 1.188 0 001.202 1.29c.436.052.86-.164 1.075-.546h.858zm-3.135-1.451h2.28a1.085 1.085 0 00-1.11-1.167 1.157 1.157 0 00-1.17 1.167zm.638-2.59l1.041-1.422h1.045l-1.165 1.423h-.92zM54.645 11.67a1.008 1.008 0 00-1.067-.764c-.746 0-1.202.57-1.202 1.53 0 .976.46 1.559 1.202 1.559a.981.981 0 001.067-.74h.866a1.766 1.766 0 01-1.928 1.534c-.611.019-1.2-.232-1.608-.686a2.064 2.064 0 01-.511-1.667 2.05 2.05 0 01.516-1.652 2.062 2.062 0 011.598-.672 1.781 1.781 0 011.933 1.558h-.866zM56.694 8.44h.884v2.482h.07a1.39 1.39 0 011.377-.806 1.49 1.49 0 011.173.474c.301.325.441.766.382 1.204v2.908h-.892v-2.688c0-.72-.336-1.084-.966-1.084a1.057 1.057 0 00-1.137 1.142v2.63h-.89V8.44zM61.7 13.428c0-.81.606-1.278 1.68-1.344l1.223-.07v-.389c0-.476-.315-.744-.924-.744-.498 0-.843.182-.941.5h-.863c.09-.773.82-1.27 1.845-1.27 1.132 0 1.77.563 1.77 1.514v3.077h-.858v-.633h-.07a1.52 1.52 0 01-1.356.707 1.367 1.367 0 01-1.053-.34 1.359 1.359 0 01-.453-1.008zm2.903-.385v-.376l-1.103.07c-.621.042-.903.253-.903.65 0 .405.352.64.837.64a1.066 1.066 0 001.17-.984zM66.885 10.199h.858v.69h.067c.197-.492.69-.8 1.219-.765.133-.002.267.01.398.037v.877a2.448 2.448 0 00-.498-.054 1.06 1.06 0 00-1.153 1.059v2.659h-.89v-4.503zM70.246 15.152h.912c.075.327.452.538 1.054.538.742 0 1.182-.352 1.182-.947v-.864h-.067a1.52 1.52 0 01-1.393.756c-1.153 0-1.866-.888-1.866-2.237 0-1.373.72-2.274 1.874-2.274a1.566 1.566 0 011.418.794h.07v-.72h.855v4.54c0 1.03-.81 1.684-2.086 1.684-1.128 0-1.858-.505-1.953-1.27zm3.164-2.758c0-.897-.465-1.472-1.224-1.472-.767 0-1.197.575-1.197 1.472s.43 1.472 1.197 1.472c.764 0 1.224-.57 1.224-1.472zM79.523 13.486a1.833 1.833 0 01-1.957 1.303 2.054 2.054 0 01-1.582-.681 2.042 2.042 0 01-.503-1.644 2.073 2.073 0 01.502-1.65c.4-.451.976-.707 1.58-.702 1.256 0 2.014.856 2.014 2.27v.31h-3.189v.05a1.188 1.188 0 001.203 1.29c.436.052.86-.164 1.074-.546h.858zm-3.135-1.451h2.281a1.085 1.085 0 00-1.111-1.167 1.157 1.157 0 00-1.17 1.167zM80.774 10.199h.858v.69h.066c.197-.492.69-.8 1.22-.765.133-.002.266.01.397.037v.877a2.448 2.448 0 00-.498-.054 1.06 1.06 0 00-1.152 1.059v2.659h-.891v-4.503zM86.526 12.448c0-1.423.733-2.324 1.874-2.324a1.489 1.489 0 011.385.79h.067V8.441h.89v6.26h-.853v-.71h-.07c-.29.504-.836.806-1.419.785-1.148 0-1.874-.901-1.874-2.328zm.92 0c0 .955.452 1.53 1.207 1.53.751 0 1.215-.583 1.215-1.526 0-.938-.469-1.53-1.215-1.53-.75 0-1.207.579-1.207 1.526zM91.947 13.428c0-.81.606-1.278 1.68-1.344l1.223-.07v-.389c0-.476-.315-.744-.925-.744-.497 0-.842.182-.94.5h-.863c.09-.773.82-1.27 1.845-1.27 1.132 0 1.77.563 1.77 1.514v3.077h-.858v-.633h-.07a1.52 1.52 0 01-1.357.707 1.367 1.367 0 01-1.052-.34 1.359 1.359 0 01-.453-1.008zm2.903-.385v-.376l-1.103.07c-.622.042-.904.253-.904.65 0 .405.353.64.838.64a1.066 1.066 0 001.169-.984zM97.133 10.199h.858v.715h.066a1.352 1.352 0 011.348-.802 1.47 1.47 0 011.185.463c.304.325.443.771.378 1.212v2.915h-.892V12.01c0-.724-.315-1.084-.974-1.084a1.037 1.037 0 00-1.078 1.141v2.635h-.891v-4.503zM103.997 10.112c1.015 0 1.679.471 1.766 1.265h-.855c-.082-.33-.406-.542-.911-.542-.498 0-.876.236-.876.587 0 .27.228.439.718.55l.75.174c.859.199 1.261.567 1.261 1.229 0 .847-.792 1.414-1.87 1.414-1.074 0-1.775-.484-1.854-1.282h.892c.158.39.564.623.982.562.556 0 .95-.248.95-.608 0-.269-.211-.442-.664-.55l-.787-.182c-.859-.203-1.256-.587-1.256-1.257 0-.798.733-1.36 1.754-1.36z"/></g></g><g fill="#FFF"><path d="M35.386 18.067h1.865v12.418h-1.865zM39.497 22.61l1.018-4.543h1.812l-1.234 4.544zM49.373 27.129h-4.746l-1.14 3.356h-2.01l4.495-12.418h2.089l4.496 12.418h-2.045l-1.139-3.356zm-4.255-1.549h3.763l-1.855-5.448h-.052l-1.856 5.448zM62.266 25.959c0 2.813-1.51 4.621-3.79 4.621a3.08 3.08 0 01-2.856-1.584h-.043v4.484h-1.864V21.431h1.804v1.506h.034a3.223 3.223 0 012.891-1.6c2.305 0 3.824 1.816 3.824 4.622zm-1.916 0c0-1.833-.95-3.039-2.4-3.039-1.423 0-2.38 1.23-2.38 3.039 0 1.824.957 3.046 2.38 3.046 1.45 0 2.4-1.196 2.4-3.046zM72.258 25.959c0 2.813-1.51 4.621-3.79 4.621a3.08 3.08 0 01-2.856-1.584h-.043v4.484h-1.863V21.431h1.803v1.506h.035a3.223 3.223 0 012.89-1.6c2.305 0 3.824 1.816 3.824 4.622zm-1.916 0c0-1.833-.95-3.039-2.399-3.039-1.424 0-2.382 1.23-2.382 3.039 0 1.824.958 3.046 2.382 3.046 1.45 0 2.4-1.196 2.4-3.046zM78.862 27.025c.138 1.232 1.338 2.04 2.977 2.04 1.57 0 2.701-.808 2.701-1.919 0-.963-.682-1.54-2.295-1.936l-1.614-.388c-2.287-.551-3.349-1.617-3.349-3.348 0-2.142 1.873-3.614 4.532-3.614 2.63 0 4.435 1.472 4.496 3.614h-1.882c-.112-1.24-1.14-1.987-2.64-1.987-1.502 0-2.53.757-2.53 1.858 0 .878.657 1.395 2.262 1.79l1.372.336c2.555.603 3.616 1.627 3.616 3.443 0 2.323-1.855 3.778-4.807 3.778-2.762 0-4.626-1.42-4.747-3.667h1.908zM90.531 19.289v2.142h1.727v1.472H90.53v4.992c0 .775.346 1.136 1.105 1.136a5.84 5.84 0 00.613-.043v1.463a5.132 5.132 0 01-1.035.086c-1.838 0-2.555-.688-2.555-2.444v-5.19h-1.32V21.43h1.32V19.29h1.872zM93.257 25.959c0-2.85 1.682-4.64 4.306-4.64 2.632 0 4.306 1.79 4.306 4.64 0 2.856-1.665 4.639-4.306 4.639-2.64 0-4.306-1.783-4.306-4.639zm6.714 0c0-1.955-.898-3.108-2.408-3.108-1.51 0-2.408 1.162-2.408 3.108 0 1.962.898 3.106 2.408 3.106 1.51 0 2.408-1.144 2.408-3.106zM103.406 21.431h1.777v1.541h.044a2.165 2.165 0 012.183-1.636c.215 0 .43.023.639.07v1.738a2.612 2.612 0 00-.837-.112 1.88 1.88 0 00-1.452.596 1.87 1.87 0 00-.49 1.487v5.37h-1.864v-9.054zM116.64 27.826c-.25 1.644-1.856 2.772-3.91 2.772-2.64 0-4.28-1.765-4.28-4.596 0-2.84 1.648-4.682 4.202-4.682 2.512 0 4.092 1.72 4.092 4.466v.637h-6.412v.112c-.06.674.173 1.341.64 1.832.468.49 1.124.757 1.802.733a2.055 2.055 0 002.097-1.274h1.77zm-6.3-2.702h4.54a2.174 2.174 0 00-.61-1.634 2.187 2.187 0 00-1.618-.664 2.302 2.302 0 00-1.636.668 2.289 2.289 0 00-.676 1.63z"/></g></g></svg>