<svg width="137" height="40" xmlns="http://www.w3.org/2000/svg"><defs><linearGradient x1="86.245%" y1="31.007%" x2="-50.146%" y2="135.54%" id="a"><stop stop-color="#FF3A44" offset="0%"/><stop stop-color="#C31162" offset="100%"/></linearGradient></defs><g fill="none" fill-rule="evenodd"><path d="M130.897 40H5.547C2.79 40 .533 37.75.533 35V5c0-2.75 2.257-5 5.014-5h125.35c2.757 0 5.014 2.25 5.014 5v30c0 2.75-2.257 5-5.014 5" fill="#000"/><path d="M130.897 0H5.547C2.79 0 .533 2.25.533 5v30c0 2.75 2.257 5 5.014 5h125.35c2.757 0 5.014-2.25 5.014-5V5c0-2.75-2.257-5-5.014-5m0 .8a4.21 4.21 0 014.211 4.2v30a4.21 4.21 0 01-4.211 4.2H5.547A4.21 4.21 0 011.336 35V5A4.21 4.21 0 015.547.8h125.35" fill="#A6A6A6"/><path d="M107.768 30h1.87V17.5h-1.87V30zm16.854-7.998l-2.145 5.42h-.064l-2.226-5.42h-2.016l3.34 7.575-1.905 4.214h1.952l5.145-11.789h-2.08zM114.01 28.58c-.612 0-1.467-.306-1.467-1.062 0-.964 1.064-1.335 1.984-1.335.821 0 1.21.178 1.709.418a2.266 2.266 0 01-2.226 1.98zm.226-6.852c-1.355 0-2.757.596-3.338 1.914l1.66.692c.356-.692 1.016-.917 1.71-.917.968 0 1.952.58 1.968 1.608v.13c-.34-.194-1.065-.483-1.952-.483-1.79 0-3.613.981-3.613 2.814 0 1.673 1.468 2.751 3.113 2.751 1.257 0 1.952-.563 2.387-1.223h.065v.965h1.807v-4.793c0-2.219-1.663-3.458-3.807-3.458zm-11.564 1.796h-2.661V19.24h2.661c1.399 0 2.193 1.154 2.193 2.142 0 .97-.794 2.143-2.193 2.143zm-.048-6.026H98.14V30h1.87v-4.736h2.614c2.074 0 4.112-1.498 4.112-3.883s-2.038-3.883-4.112-3.883zm-24.45 11.084c-1.292 0-2.374-1.079-2.374-2.56 0-1.5 1.082-2.595 2.375-2.595 1.275 0 2.277 1.095 2.277 2.594 0 1.482-1.002 2.561-2.277 2.561zm2.149-5.88h-.064c-.42-.499-1.229-.95-2.246-.95-2.133 0-4.088 1.868-4.088 4.27 0 2.383 1.955 4.236 4.088 4.236 1.017 0 1.825-.45 2.246-.967h.064v.612c0 1.628-.873 2.497-2.278 2.497-1.147 0-1.858-.82-2.149-1.514l-1.631.677c.468 1.127 1.712 2.513 3.78 2.513 2.198 0 4.056-1.289 4.056-4.43v-7.637h-1.778v.693zM83.393 30h1.874V17.5h-1.874V30zm4.636-4.124c-.048-1.644 1.277-2.48 2.23-2.48.744 0 1.373.37 1.584.901l-3.814 1.58zm5.816-1.418c-.356-.95-1.438-2.707-3.65-2.707-2.198 0-4.024 1.724-4.024 4.254 0 2.384 1.81 4.253 4.233 4.253 1.954 0 3.085-1.192 3.555-1.885l-1.454-.967c-.486.71-1.147 1.176-2.101 1.176-.953 0-1.632-.435-2.067-1.289l5.702-2.352-.194-.483zm-45.434-1.4v1.803h4.329c-.128 1.015-.468 1.756-.985 2.271-.63.63-1.616 1.322-3.344 1.322-2.667 0-4.75-2.143-4.75-4.8 0-2.659 2.083-4.803 4.75-4.803 1.438 0 2.488.564 3.263 1.29l1.277-1.273c-1.083-1.03-2.52-1.82-4.54-1.82-3.652 0-6.722 2.964-6.722 6.605 0 3.64 3.07 6.605 6.722 6.605 1.97 0 3.457-.645 4.62-1.853 1.195-1.192 1.567-2.868 1.567-4.22a5.82 5.82 0 00-.097-1.128h-6.09zm11.109 5.524c-1.292 0-2.407-1.063-2.407-2.577 0-1.53 1.115-2.578 2.407-2.578s2.408 1.047 2.408 2.578c0 1.514-1.116 2.577-2.408 2.577zm0-6.83c-2.359 0-4.281 1.788-4.281 4.253 0 2.45 1.922 4.253 4.28 4.253 2.36 0 4.283-1.804 4.283-4.253 0-2.465-1.923-4.254-4.282-4.254zm9.34 6.83c-1.293 0-2.408-1.063-2.408-2.577 0-1.53 1.115-2.578 2.408-2.578 1.292 0 2.407 1.047 2.407 2.578 0 1.514-1.115 2.577-2.407 2.577zm0-6.83c-2.359 0-4.281 1.788-4.281 4.253 0 2.45 1.922 4.253 4.28 4.253 2.36 0 4.282-1.804 4.282-4.253 0-2.465-1.923-4.254-4.281-4.254z" fill="#FFF"/><path d="M10.999 7.538c-.292.308-.465.786-.465 1.405V31.06c0 .62.173 1.097.465 1.404l.073.073 12.424-12.389v-.292L11.072 7.465l-.073.073z" fill="#00D1FF"/><path d="M23.496 19.855v.292l4.141 4.131.094-.052 4.907-2.78c1.4-.795 1.4-2.095 0-2.889l-4.907-2.78-.093-.053-4.142 4.131z" fill="#FFCD01"/><path d="M10.465 32.463c.461.488 1.225.55 2.084.062l14.649-8.3-4.235-4.224-12.498 12.462z" fill="url(#a)" transform="translate(.534)"/><path d="M10.999 7.538l12.497 12.463 4.235-4.224-14.649-8.3c-.403-.229-.785-.337-1.124-.337-.385 0-.715.14-.96.398" fill="#00F076"/><path d="M27.638 24.132L13.082 32.38c-.814.46-1.542.43-2.01.01l-.074.075.074.072v-.001c.468.42 1.196.45 2.01-.01l14.649-8.301-.093-.093z" fill="#000"/><path d="M10.998 32.319c-.292-.309-.464-.787-.464-1.406v.146c0 .62.172 1.098.464 1.405l.074-.073-.074-.072zM32.638 21.299l-5 2.833.093.093 4.907-2.78c.7-.397 1.05-.92 1.05-1.443-.059.473-.415.937-1.05 1.297" fill="#000"/><path d="M13.082 7.623l19.556 11.08c.635.36.991.824 1.05 1.298.001-.523-.35-1.047-1.05-1.444L13.082 7.477c-1.402-.794-2.548-.134-2.548 1.466v.146c0-1.6 1.146-2.26 2.548-1.466M42.7 12.263h1.067c.695 0 1.245-.198 1.651-.595.406-.397.609-.953.609-1.668 0-.71-.203-1.263-.609-1.663-.406-.4-.956-.6-1.651-.6H42.7v4.526zm-.773.737V7h1.84c.924 0 1.664.278 2.219.834.554.556.831 1.278.831 2.166 0 .888-.277 1.61-.831 2.166-.555.556-1.295.834-2.22.834h-1.84z" fill="#FFF"/><path d="M42.7 12.263h1.067c.695 0 1.245-.198 1.651-.595.406-.397.609-.953.609-1.668 0-.71-.203-1.263-.609-1.663-.406-.4-.956-.6-1.651-.6H42.7v4.526zm-.773.737V7h1.84c.924 0 1.664.278 2.219.834.554.556.831 1.278.831 2.166 0 .888-.277 1.61-.831 2.166-.555.556-1.295.834-2.22.834h-1.84z" stroke="#FFF" stroke-width=".2"/><path fill="#FFF" d="M47.902 13h.774V7h-.774z"/><path stroke="#FFF" stroke-width=".2" d="M47.902 13h.774V7h-.774z"/><path d="M51.75 13.134c-.437 0-.863-.142-1.28-.427a1.976 1.976 0 01-.82-1.198l.705-.285c.085.329.256.607.517.833.262.226.553.34.878.34.336 0 .624-.088.862-.264a.843.843 0 00.357-.717c0-.335-.119-.593-.357-.775-.238-.181-.615-.35-1.13-.507-.533-.167-.936-.384-1.21-.65-.275-.265-.413-.604-.413-1.017 0-.431.171-.805.513-1.123.342-.318.788-.478 1.336-.478.51 0 .925.127 1.244.38.32.256.527.534.621.835l-.705.293c-.05-.19-.175-.365-.374-.528-.198-.161-.455-.242-.769-.242-.297 0-.55.082-.76.247a.754.754 0 00-.316.616c0 .223.097.412.29.565.195.154.478.292.853.415.297.095.545.187.744.277.199.089.402.208.605.356.205.148.358.332.462.553.104.22.156.476.156.767 0 .29-.06.55-.18.779-.121.229-.281.41-.48.545a2.388 2.388 0 01-1.349.41" fill="#FFF"/><path d="M51.75 13.134c-.437 0-.863-.142-1.28-.427a1.976 1.976 0 01-.82-1.198l.705-.285c.085.329.256.607.517.833.262.226.553.34.878.34.336 0 .624-.088.862-.264a.843.843 0 00.357-.717c0-.335-.119-.593-.357-.775-.238-.181-.615-.35-1.13-.507-.533-.167-.936-.384-1.21-.65-.275-.265-.413-.604-.413-1.017 0-.431.171-.805.513-1.123.342-.318.788-.478 1.336-.478.51 0 .925.127 1.244.38.32.256.527.534.621.835l-.705.293c-.05-.19-.175-.365-.374-.528-.198-.161-.455-.242-.769-.242-.297 0-.55.082-.76.247a.754.754 0 00-.316.616c0 .223.097.412.29.565.195.154.478.292.853.415.297.095.545.187.744.277.199.089.402.208.605.356.205.148.358.332.462.553.104.22.156.476.156.767 0 .29-.06.55-.18.779-.121.229-.281.41-.48.545a2.388 2.388 0 01-1.349.41z" stroke="#FFF" stroke-width=".2"/><path d="M55.641 9.832h1.295c.325 0 .585-.108.78-.326.197-.218.295-.458.295-.72 0-.264-.098-.504-.294-.722-.196-.218-.456-.327-.781-.327H55.64v2.095zm0 3.168h-.773V7h2.05c.51 0 .952.17 1.324.507.373.338.559.764.559 1.278s-.186.94-.559 1.277a1.9 1.9 0 01-1.323.508H55.64V13z" fill="#FFF"/><path d="M55.641 9.832h1.295c.325 0 .585-.108.78-.326.197-.218.295-.458.295-.72 0-.264-.098-.504-.294-.722-.196-.218-.456-.327-.781-.327H55.64v2.095zm0 3.168h-.773V7h2.05c.51 0 .952.17 1.324.507.373.338.559.764.559 1.278s-.186.94-.559 1.277a1.9 1.9 0 01-1.323.508H55.64V13z" stroke="#FFF" stroke-width=".2"/><path d="M60.855 11.722c.445.45.99.674 1.634.674.644 0 1.19-.224 1.635-.674.445-.45.669-1.024.669-1.722s-.224-1.273-.67-1.722a2.212 2.212 0 00-1.634-.675 2.21 2.21 0 00-1.634.675c-.444.45-.668 1.024-.668 1.722s.224 1.272.668 1.722m3.84.502c-.591.607-1.326.91-2.206.91-.88 0-1.614-.303-2.205-.91-.591-.606-.886-1.347-.886-2.224 0-.877.295-1.619.886-2.225.59-.606 1.326-.909 2.205-.909.875 0 1.608.304 2.202.913.594.61.89 1.35.89 2.221 0 .877-.295 1.618-.886 2.224" fill="#FFF"/><path d="M60.855 11.722c.445.45.99.674 1.634.674.644 0 1.19-.224 1.635-.674.445-.45.669-1.024.669-1.722s-.224-1.273-.67-1.722a2.212 2.212 0 00-1.634-.675 2.21 2.21 0 00-1.634.675c-.444.45-.668 1.024-.668 1.722s.224 1.272.668 1.722zm3.84.502c-.591.607-1.326.91-2.206.91-.88 0-1.614-.303-2.205-.91-.591-.606-.886-1.347-.886-2.224 0-.877.295-1.619.886-2.225.59-.606 1.326-.909 2.205-.909.875 0 1.608.304 2.202.913.594.61.89 1.35.89 2.221 0 .877-.295 1.618-.886 2.224z" stroke="#FFF" stroke-width=".2"/><path fill="#FFF" d="M66.667 13V7h.94l2.925 4.667h.034l-.034-1.156v-3.51h.774v6h-.807L67.44 8.105h-.034l.034 1.157V13z"/><path stroke="#FFF" stroke-width=".2" d="M66.667 13V7h.94l2.925 4.667h.034l-.034-1.156v-3.51h.774v6h-.807L67.44 8.105h-.034l.034 1.157V13z"/><path fill="#FFF" d="M72.683 13h.774V7h-.774z"/><path stroke="#FFF" stroke-width=".2" d="M72.683 13h.774V7h-.774z"/><path d="M75.607 12.263h1.555a.922.922 0 00.722-.311.992.992 0 00.278-.678c0-.246-.095-.47-.286-.675a.98.98 0 00-.748-.306h-1.521v1.97zm0-2.69h1.403c.292 0 .526-.096.703-.29a.923.923 0 00.263-.632.914.914 0 00-.256-.628.863.863 0 00-.675-.285h-1.438v1.835zM74.834 13V7h2.176c.471 0 .878.156 1.223.465.345.31.518.7.518 1.169 0 .285-.075.537-.224.754a1.39 1.39 0 01-.593.495v.033c.297.1.54.274.732.52.19.246.286.53.286.855 0 .492-.181.899-.542 1.223a1.855 1.855 0 01-1.282.486h-2.294z" fill="#FFF"/><path d="M75.607 12.263h1.555a.922.922 0 00.722-.311.992.992 0 00.278-.678c0-.246-.095-.47-.286-.675a.98.98 0 00-.748-.306h-1.521v1.97zm0-2.69h1.403c.292 0 .526-.096.703-.29a.923.923 0 00.263-.632.914.914 0 00-.256-.628.863.863 0 00-.675-.285h-1.438v1.835zM74.834 13V7h2.176c.471 0 .878.156 1.223.465.345.31.518.7.518 1.169 0 .285-.075.537-.224.754a1.39 1.39 0 01-.593.495v.033c.297.1.54.274.732.52.19.246.286.53.286.855 0 .492-.181.899-.542 1.223a1.855 1.855 0 01-1.282.486h-2.294z" stroke="#FFF" stroke-width=".2"/><path fill="#FFF" d="M79.994 13V7h.773v5.263h2.604V13z"/><path stroke="#FFF" stroke-width=".2" d="M79.994 13V7h.773v5.263h2.604V13z"/><path fill="#FFF" d="M87.86 7.737h-2.74V9.64h2.47v.721h-2.47v1.902h2.74V13h-3.513V7h3.513z"/><path stroke="#FFF" stroke-width=".2" d="M87.86 7.737h-2.74V9.64h2.47v.721h-2.47v1.902h2.74V13h-3.513V7h3.513z"/><path d="M92.532 13.134c-.437 0-.864-.142-1.28-.427a1.976 1.976 0 01-.821-1.198l.706-.285c.084.329.256.607.516.833.262.226.554.34.879.34.336 0 .624-.088.861-.264a.843.843 0 00.357-.717c0-.335-.118-.593-.357-.775-.237-.181-.614-.35-1.13-.507-.532-.167-.935-.384-1.21-.65-.274-.265-.412-.604-.412-1.017 0-.431.171-.805.513-1.123.342-.318.787-.478 1.336-.478.51 0 .924.127 1.243.38.32.256.528.534.622.835l-.705.293c-.051-.19-.175-.365-.374-.528-.199-.161-.455-.242-.77-.242-.296 0-.55.082-.76.247a.754.754 0 00-.315.616c0 .223.097.412.29.565.194.154.478.292.853.415.297.095.545.187.744.277.199.089.401.208.605.356.204.148.358.332.462.553.103.22.155.476.155.767 0 .29-.06.55-.18.779-.12.229-.28.41-.48.545a2.388 2.388 0 01-1.348.41" fill="#FFF"/><path d="M92.532 13.134c-.437 0-.864-.142-1.28-.427a1.976 1.976 0 01-.821-1.198l.706-.285c.084.329.256.607.516.833.262.226.554.34.879.34.336 0 .624-.088.861-.264a.843.843 0 00.357-.717c0-.335-.118-.593-.357-.775-.237-.181-.614-.35-1.13-.507-.532-.167-.935-.384-1.21-.65-.274-.265-.412-.604-.412-1.017 0-.431.171-.805.513-1.123.342-.318.787-.478 1.336-.478.51 0 .924.127 1.243.38.32.256.528.534.622.835l-.705.293c-.051-.19-.175-.365-.374-.528-.199-.161-.455-.242-.77-.242-.296 0-.55.082-.76.247a.754.754 0 00-.315.616c0 .223.097.412.29.565.194.154.478.292.853.415.297.095.545.187.744.277.199.089.401.208.605.356.204.148.358.332.462.553.103.22.155.476.155.767 0 .29-.06.55-.18.779-.12.229-.28.41-.48.545a2.388 2.388 0 01-1.348.41z" stroke="#FFF" stroke-width=".2"/><path d="M97.742 13.134c-.662 0-1.198-.218-1.61-.653-.412-.436-.618-1.006-.618-1.71V7h.774v3.805c0 .475.124.858.374 1.152.248.293.608.44 1.08.44.47 0 .83-.147 1.079-.44.25-.294.374-.677.374-1.152V7h.774v3.77c0 .71-.2 1.282-.602 1.715-.4.433-.942.649-1.625.649" fill="#FFF"/><path d="M97.742 13.134c-.662 0-1.198-.218-1.61-.653-.412-.436-.618-1.006-.618-1.71V7h.774v3.805c0 .475.124.858.374 1.152.248.293.608.44 1.08.44.47 0 .83-.147 1.079-.44.25-.294.374-.677.374-1.152V7h.774v3.77c0 .71-.2 1.282-.602 1.715-.4.433-.942.649-1.625.649z" stroke="#FFF" stroke-width=".2"/><path d="M101.985 9.85h1.243c.31 0 .574-.102.795-.303a.982.982 0 00.332-.762c0-.263-.098-.503-.294-.72-.196-.219-.456-.328-.781-.328h-1.295V9.85zm-.773 3.15V7h2.05c.51 0 .952.17 1.324.507.373.338.559.764.559 1.278 0 .42-.137.79-.412 1.11a1.78 1.78 0 01-1.025.608l-.017.025 1.69 2.44V13h-.916l-1.623-2.43h-.857V13h-.773z" fill="#FFF"/><path d="M101.985 9.85h1.243c.31 0 .574-.102.795-.303a.982.982 0 00.332-.762c0-.263-.098-.503-.294-.72-.196-.219-.456-.328-.781-.328h-1.295V9.85zm-.773 3.15V7h2.05c.51 0 .952.17 1.324.507.373.338.559.764.559 1.278 0 .42-.137.79-.412 1.11a1.78 1.78 0 01-1.025.608l-.017.025 1.69 2.44V13h-.916l-1.623-2.43h-.857V13h-.773z" stroke="#FFF" stroke-width=".2"/></g></svg>